<?xml version="1.0" standalone="no"?>
<!DOCTYPE svg PUBLIC "-//W3C//DTD SVG 20010904//EN"
 "http://www.w3.org/TR/2001/REC-SVG-20010904/DTD/svg10.dtd">
<svg version="1.0" xmlns="http://www.w3.org/2000/svg"
 width="453.000000pt" height="262.000000pt" viewBox="0 0 453.000000 262.000000"
 preserveAspectRatio="xMidYMid meet">
<metadata>
Created by potrace 1.16, written by Peter Selinger 2001-2019
</metadata>
<g transform="translate(0.000000,262.000000) scale(0.100000,-0.100000)"
fill="#000000" stroke="none">
<path d="M3093 1801 c70 -78 85 -157 46 -238 -60 -124 -302 -231 -599 -264
-144 -16 -433 -6 -580 20 -125 22 -258 58 -332 90 -68 29 -59 17 14 -20 78
-40 271 -103 366 -120 71 -13 79 -20 66 -53 -8 -21 -149 -24 -157 -3 -4 10 -6
10 -6 0 -1 -8 -16 -13 -40 -13 -35 0 -39 2 -35 23 l5 22 -12 -22 c-10 -20 -20
-23 -67 -23 l-55 0 6 53 c5 42 4 48 -5 32 -6 -11 -42 -73 -79 -137 l-68 -118
660 0 c406 0 659 4 659 9 0 6 -16 55 -36 111 -20 56 -33 104 -30 108 4 3 43
16 89 29 163 46 300 133 344 217 21 40 19 115 -3 162 -21 44 -104 129 -155
158 l-34 20 38 -43z"/>
<path d="M1133 720 c-34 -20 -50 -58 -38 -87 6 -15 9 -12 15 12 11 51 29 75
55 75 14 0 25 -6 25 -14 0 -7 -36 -93 -79 -190 -44 -97 -75 -174 -70 -170 14
8 50 84 99 204 24 58 47 110 53 115 5 6 8 -37 7 -115 -3 -151 -2 -170 9 -170
4 0 16 21 26 48 26 69 105 225 112 219 2 -3 -5 -47 -17 -99 -22 -94 -24 -198
-5 -205 7 -2 12 22 13 59 2 59 41 272 57 311 4 10 3 17 -4 17 -16 0 -76 -96
-127 -204 l-44 -91 7 127 c5 109 4 131 -11 152 -20 31 -40 33 -83 6z"/>
<path d="M2443 718 c-37 -27 -61 -74 -46 -89 7 -7 15 3 24 32 15 45 42 71 58
54 5 -6 -12 -78 -45 -185 -29 -96 -53 -179 -53 -185 0 -29 42 77 75 192 21 73
39 131 41 129 2 -2 14 -71 27 -154 13 -83 27 -155 31 -161 14 -23 22 -8 35 62
7 39 28 126 46 191 19 65 32 121 29 124 -2 3 -9 -8 -15 -24 -19 -49 -70 -236
-70 -256 0 -10 -4 -18 -8 -18 -5 0 -16 59 -25 131 -16 128 -33 179 -60 179 -7
0 -27 -10 -44 -22z"/>
</g>
</svg>
